<svg id="visual" viewBox="0 0 900 450" width="900" height="450" xmlns="http://www.w3.org/2000/svg" xmlns:xlink="http://www.w3.org/1999/xlink" version="1.1"><rect x="0" y="0" width="900" height="450" fill="#402B2A"></rect><path d="M0 309L129 330L257 275L386 294L514 276L643 304L771 330L900 289L900 451L771 451L643 451L514 451L386 451L257 451L129 451L0 451Z" fill="#bb7916"></path><path d="M0 336L129 355L257 314L386 353L514 341L643 307L771 322L900 338L900 451L771 451L643 451L514 451L386 451L257 451L129 451L0 451Z" fill="#cc8a3b"></path><path d="M0 352L129 334L257 359L386 337L514 343L643 356L771 366L900 351L900 451L771 451L643 451L514 451L386 451L257 451L129 451L0 451Z" fill="#db9c5a"></path><path d="M0 395L129 379L257 369L386 384L514 375L643 399L771 406L900 368L900 451L771 451L643 451L514 451L386 451L257 451L129 451L0 451Z" fill="#e9ae78"></path><path d="M0 428L129 417L257 425L386 422L514 418L643 398L771 402L900 403L900 451L771 451L643 451L514 451L386 451L257 451L129 451L0 451Z" fill="#f6c196"></path></svg>